<svg xmlns="http://www.w3.org/2000/svg" width="32" height="32" viewBox="0 0 32 32">
  <!-- SIGNAL: a transmission radiating outward, in the Pride spectrum Chapter 2 restores. -->
  <rect width="32" height="32" rx="7" fill="#0b0a14"/>
  <g fill="none" stroke-width="1.8" stroke-linecap="round">
    <path d="M8 20 A4 4 0 0 1 12 24" stroke="#ff3b30"/>
    <path d="M8 16.5 A7.5 7.5 0 0 1 15.5 24" stroke="#ff9500"/>
    <path d="M8 13 A11 11 0 0 1 19 24" stroke="#ffd60a"/>
    <path d="M8 9.5 A14.5 14.5 0 0 1 22.5 24" stroke="#34c759"/>
    <path d="M8 6 A18 18 0 0 1 26 24" stroke="#0a84ff"/>
    <path d="M8 2.5 A21.5 21.5 0 0 1 29.5 24" stroke="#bf5af2"/>
  </g>
  <circle cx="8" cy="24" r="4" fill="#ffffff" opacity="0.22"/>
  <circle cx="8" cy="24" r="2.3" fill="#ffffff"/>
</svg>
